# xmcd
# 
# Track frame offsets:
#     150
#     3486
#     14980
#     27883
#     45258
#     57112
#     72843
#     87857
#     103164
#     115594
#     132563
#     148419
#     165970
#     173722
#     187309
# 
# Disc length: 2689
# 
# Revision: 0
# Processed by: cddbd v1.5.2PL0 Copyright (c) Steve Scherf et al.
# Submitted via: fre:ac v1.0.17
# 
DISCID=ce0a7f0f
DTITLE=Kevin Fowler - How Country Are Ya?
DYEAR=2014
DGENRE=Country
TTITLE0=Intro (featuring Earl Dibbles)
TTITLE1=How Country Are Ya?
TTITLE2=Guitars And Guns 
TTITLE3=Before Somebody Gets Hurt
TTITLE4=The Weekend 
TTITLE5=If I Could Make A Livin' Drinkin'
TTITLE6=Panhandle Poorboy 
TTITLE7=Borracho Grande
TTITLE8=Love Song 
TTITLE9=Habit I Can't Break
TTITLE10=The Girls I Go With
TTITLE11=Beer Me 
TTITLE12=Mousturdonus 
TTITLE13=Whiskey and I 
TTITLE14=Chicken Wing 
EXTD=
EXTT0=
EXTT1=
EXTT2=
EXTT3=
EXTT4=
EXTT5=
EXTT6=
EXTT7=
EXTT8=
EXTT9=
EXTT10=
EXTT11=
EXTT12=
EXTT13=
EXTT14=
PLAYORDER=
